<svg xmlns="http://www.w3.org/2000/svg" viewBox="0 0 960 540" role="img" aria-labelledby="title desc">
  <title id="title">WES Run Time vs Number of Threads</title>
  <desc id="desc">Line chart showing WES single-mode runtime for 1000 Genomes sample SRR1596639 decreasing from about 130.9 minutes at 2 threads to about 90.9 minutes at 12 threads.</desc>
  <rect width="960" height="540" fill="#fff"/>

  <style>
    .title { font: 32px Arial, Helvetica, sans-serif; fill: #333; }
    .axis-title { font: 22px Arial, Helvetica, sans-serif; fill: #222; }
    .tick { font: 20px Arial, Helvetica, sans-serif; fill: #222; }
    .grid { stroke: #c8c8c8; stroke-width: 1.4; stroke-dasharray: 5 4; }
    .axis { stroke: #222; stroke-width: 2.2; }
    .line { fill: none; stroke: #f5a400; stroke-width: 3; stroke-linecap: round; stroke-linejoin: round; }
    .point { fill: #f5a400; stroke: #f5a400; stroke-width: 2; }
    .value { font: 14px Arial, Helvetica, sans-serif; fill: #555; }
  </style>

  <text x="480" y="42" text-anchor="middle" class="title">WES Run Time vs Number of Threads</text>

  <!-- Plot area: x 90..900, y 76..424. X range 2..12, Y range 90..132 minutes. -->
  <g aria-hidden="true">
    <line x1="90" y1="424" x2="920" y2="424" class="grid"/>
    <line x1="90" y1="341" x2="920" y2="341" class="grid"/>
    <line x1="90" y1="258" x2="920" y2="258" class="grid"/>
    <line x1="90" y1="175" x2="920" y2="175" class="grid"/>
    <line x1="90" y1="93" x2="920" y2="93" class="grid"/>

    <line x1="90" y1="76" x2="90" y2="424" class="grid"/>
    <line x1="252" y1="76" x2="252" y2="424" class="grid"/>
    <line x1="414" y1="76" x2="414" y2="424" class="grid"/>
    <line x1="576" y1="76" x2="576" y2="424" class="grid"/>
    <line x1="738" y1="76" x2="738" y2="424" class="grid"/>
    <line x1="900" y1="76" x2="900" y2="424" class="grid"/>
  </g>

  <line x1="90" y1="76" x2="90" y2="424" class="axis"/>
  <line x1="90" y1="424" x2="920" y2="424" class="axis"/>

  <g class="tick" text-anchor="middle">
    <text x="90" y="454">2</text>
    <text x="252" y="454">4</text>
    <text x="414" y="454">6</text>
    <text x="576" y="454">8</text>
    <text x="738" y="454">10</text>
    <text x="900" y="454">12</text>
  </g>

  <g class="tick" text-anchor="end">
    <text x="76" y="430">90</text>
    <text x="76" y="347">100</text>
    <text x="76" y="264">110</text>
    <text x="76" y="181">120</text>
    <text x="76" y="99">130</text>
  </g>

  <text x="505" y="500" text-anchor="middle" class="axis-title">Number of Threads</text>
  <text x="34" y="244" text-anchor="middle" transform="rotate(-90 34 244)" class="axis-title">Run Time (minutes)</text>

  <polyline class="line" points="90,85 252,294 414,367 576,383 738,407 900,417"/>

  <g>
    <circle cx="90" cy="85" r="6" class="point"/>
    <circle cx="252" cy="294" r="6" class="point"/>
    <circle cx="414" cy="367" r="6" class="point"/>
    <circle cx="576" cy="383" r="6" class="point"/>
    <circle cx="738" cy="407" r="6" class="point"/>
    <circle cx="900" cy="417" r="6" class="point"/>
  </g>
</svg>
